<?xml version="1.0" encoding="UTF-8"?>
<svg version="1.1" xmlns="http://www.w3.org/2000/svg" width="5708" height="3361">
<path d="M0 0 C2.72977986 0.0016982 5.45955719 0.00052283 8.18933725 -0.00038493 C14.79147755 -0.00060011 21.39355081 0.01058139 27.99567088 0.02616873 C33.42685855 0.03881449 38.85803825 0.0470589 44.2892375 0.05272305 C108.29821894 0.12162276 172.30309281 0.58164446 236.30914201 1.16848182 C246.98888726 1.26632255 257.66865561 1.3612704 268.34844208 1.4545002 C269.51410876 1.46468011 269.51410876 1.46468011 270.70332426 1.47506568 C273.86179 1.50264423 277.02025585 1.53020954 280.17872186 1.55775618 C309.27997431 1.8115872 338.38116378 2.07202716 367.48232509 2.33608041 C393.19018032 2.56930836 418.89807695 2.79730122 444.60601807 3.02085876 C446.27494384 3.03537336 447.94386961 3.04988808 449.61279538 3.06440293 C450.43802109 3.07157997 451.2632468 3.07875701 452.11347935 3.08615153 C456.26986814 3.12230263 460.42625683 3.1584652 464.58264542 3.19464016 C465.81342969 3.20535164 465.81342969 3.20535164 467.0690783 3.21627951 C488.82719368 3.40570776 510.58527573 3.59888644 532.34334731 3.79327542 C534.68188901 3.81416551 537.02043071 3.83505541 539.35897242 3.85594446 C540.90899065 3.8697912 542.45900885 3.88364101 544.00902703 3.89749392 C554.7297471 3.99328089 565.45047861 4.08767496 576.17121967 4.18108241 C589.90784486 4.30077291 603.64444276 4.42306955 617.38100424 4.54987627 C623.97920254 4.61072019 630.57740735 4.67029139 637.17564774 4.72644615 C643.22593606 4.77797825 649.27617928 4.8332287 655.32640836 4.89129079 C657.49759047 4.91150938 659.66878503 4.93044661 661.83999136 4.94787138 C672.96394832 5.03792187 684.07198695 5.24872684 695.18764877 5.70210361 C696.16879816 5.74186345 697.14994754 5.78162328 698.16082872 5.82258796 C706.38951932 6.18435373 714.52162804 6.93628269 722.69390869 7.98252869 C723.38364777 8.06900665 724.07338684 8.15548462 724.7840271 8.24458313 C797.330819 17.39270018 869.33333888 46.88693328 924.37408447 95.6214447 C926.67026525 97.58674911 929.03781806 99.45373766 931.40093994 101.33799744 C937.28116298 106.1300315 942.63091977 111.33635541 947.95562744 116.72593689 C949.51364997 118.30235546 951.07966676 119.87048386 952.64703369 121.43760681 C958.05417603 126.86354119 963.32755947 132.3630269 968.25640869 138.23252869 C969.39529541 139.58411072 969.39529541 139.58411072 970.55718994 140.96299744 C997.66183274 174.06750292 1018.10574405 211.0079465 1038.90093994 248.23252869 C1047.24857498 263.17116181 1055.71383106 278.04223412 1064.21621704 292.89317322 C1070.17466567 303.3043022 1076.05025729 313.76048 1081.90093994 324.23252869 C1090.24857498 339.17116181 1098.71383106 354.04223412 1107.21621704 368.89317322 C1113.17466567 379.3043022 1119.05025729 389.76048 1124.90093994 400.23252869 C1133.24857498 415.17116181 1141.71383106 430.04223412 1150.21621704 444.89317322 C1156.17466567 455.3043022 1162.05025729 465.76048 1167.90093994 476.23252869 C1176.24857498 491.17116181 1184.71383106 506.04223412 1193.21621704 520.89317322 C1199.17466567 531.3043022 1205.05025729 541.76048 1210.90093994 552.23252869 C1219.24857498 567.17116181 1227.71383106 582.04223412 1236.21621704 596.89317322 C1242.17466567 607.3043022 1248.05025729 617.76048 1253.90093994 628.23252869 C1262.24857498 643.17116181 1270.71383106 658.04223412 1279.21621704 672.89317322 C1285.17466567 683.3043022 1291.05025729 693.76048 1296.90093994 704.23252869 C1304.57905678 717.97301566 1312.35038959 731.66011058 1320.17080688 745.32002258 C1327.94983459 758.91110356 1335.67542352 772.52972105 1343.25640869 786.23252869 C1343.87934814 787.3512738 1344.5022876 788.47001892 1345.144104 789.62266541 C1354.27312468 806.06551239 1362.39929134 822.69874693 1369.25640869 840.23252869 C1369.62846436 841.1778949 1370.00052002 842.12326111 1370.3838501 843.09727478 C1385.52941328 881.98527216 1394.30772418 924.44916316 1395.25640869 966.23252869 C1395.3163501 968.20672791 1395.3163501 968.20672791 1395.37750244 970.22080994 C1396.876059 1042.3558736 1375.5554104 1112.40907032 1339.25640869 1174.23252869 C1338.63749756 1175.28665955 1338.01858643 1176.34079041 1337.38092041 1177.42686462 C1333.71736154 1183.65168893 1330.03158479 1189.86313552 1326.33334351 1196.06739807 C1322.62909127 1202.2820354 1318.94286254 1208.5073204 1315.25640869 1214.73252869 C1313.92315123 1216.98257364 1312.58981785 1219.23257362 1311.25640869 1221.48252869 C1310.59640869 1222.59627869 1309.93640869 1223.71002869 1309.25640869 1224.85752869 C1255.25640881 1315.98252849 1255.25640881 1315.98252849 1253.25567627 1319.35874939 C1251.92476649 1321.6046698 1250.59387451 1323.85060076 1249.26300049 1326.09654236 C1246.23546357 1331.20567302 1243.20779166 1336.31472343 1240.17941284 1341.4233551 C1233.69862874 1352.35594039 1227.21955205 1363.28950253 1220.75640869 1374.23252869 C1213.95131417 1385.75452707 1207.12842758 1397.26596414 1200.30474854 1408.77696228 C1196.95464684 1414.42842952 1193.60560689 1420.08052599 1190.25640869 1425.73252869 C1188.92307982 1427.98253133 1187.58974648 1430.23253133 1186.25640869 1432.48252869 C1185.59640869 1433.59627869 1184.93640869 1434.71002869 1184.25640869 1435.85752869 C1178.25640875 1445.98252859 1178.25640875 1445.98252859 1176.25567627 1449.35874939 C1174.92476649 1451.6046698 1173.59387451 1453.85060076 1172.26300049 1456.09654236 C1169.23546357 1461.20567302 1166.20779166 1466.31472343 1163.17941284 1471.4233551 C1156.69862874 1482.35594039 1150.21955205 1493.28950253 1143.75640869 1504.23252869 C1136.95131417 1515.75452707 1130.12842758 1527.26596414 1123.30474854 1538.77696228 C1119.95464684 1544.42842952 1116.60560689 1550.08052599 1113.25640869 1555.73252869 C1111.92307982 1557.98253133 1110.58974648 1560.23253133 1109.25640869 1562.48252869 C1108.59640869 1563.59627869 1107.93640869 1564.71002869 1107.25640869 1565.85752869 C1085.25640866 1602.98252875 1085.25640866 1602.98252875 1083.25567627 1606.35874939 C1081.92476649 1608.6046698 1080.59387451 1610.85060076 1079.26300049 1613.09654236 C1076.23546357 1618.20567302 1073.20779166 1623.31472343 1070.17941284 1628.4233551 C1063.69862874 1639.35594039 1057.21955205 1650.28950253 1050.75640869 1661.23252869 C1043.95131417 1672.75452707 1037.12842758 1684.26596414 1030.30474854 1695.77696228 C1027.61911037 1700.30751016 1024.93417054 1704.8384718 1022.24932861 1709.36949158 C1020.92026059 1711.61228369 1019.59099612 1713.85495941 1018.26153564 1716.09751892 C1014.89883822 1721.77024685 1011.53939634 1727.44486597 1008.18609619 1733.12315369 C986.12590834 1770.45965078 963.82282876 1805.71539953 933.13140869 1836.60752869 C932.62593506 1837.11845062 932.12046143 1837.62937256 931.59967041 1838.15577698 C924.83272779 1844.97697712 917.78857887 1851.25452345 910.25640869 1857.23252869 C908.86925793 1858.3759908 907.48486658 1859.52281388 906.10406494 1860.67393494 C898.4287666 1867.02197818 890.68796998 1872.90627424 882.25640869 1878.23252869 C880.88195624 1879.12981146 879.50831763 1880.02834159 878.13531494 1880.92784119 C837.39530181 1907.40797057 792.40467225 1924.48048053 744.63140869 1932.98252869 C743.5253125 1933.18144714 742.41921631 1933.3803656 741.27960205 1933.58531189 C723.55339907 1936.57451678 705.76027218 1937.53852771 687.80937195 1937.46505737 C685.85586514 1937.46442293 683.90235795 1937.4645786 681.94885123 1937.4654423 C676.64578888 1937.46481581 671.34284188 1937.45076935 666.03981049 1937.4335527 C662.62968035 1937.42353147 659.21956342 1937.41732067 655.80942237 1937.41233432 C598.52732904 1937.32804121 541.24738739 1936.81760301 483.96794269 1936.29657555 C473.26808334 1936.19930975 462.56820592 1936.10425369 451.86831474 1936.01055717 C451.09350663 1936.00377057 450.31869851 1935.99698396 449.52041136 1935.98999169 C446.37151457 1935.96241506 443.22261768 1935.93485021 440.07372065 1935.9073012 C410.89339795 1935.65199914 381.71312068 1935.39183036 352.53286511 1935.12897697 C326.8303081 1934.8974728 301.12772382 1934.6692912 275.42510986 1934.44419861 C273.76786552 1934.42968389 272.11062118 1934.41516917 270.45337684 1934.40065444 C269.63389866 1934.3934774 268.81442048 1934.38630037 267.97010963 1934.37890584 C263.84149559 1934.3427468 259.71288159 1934.30658414 255.58426762 1934.27041721 C254.76902475 1934.26327623 253.95378189 1934.25613524 253.1138347 1934.24877786 C227.44004301 1934.02385509 201.76627802 1933.79592007 176.09251668 1933.56756345 C166.15108365 1933.47914395 156.20964653 1933.39120562 146.26820466 1933.30378604 C111.47449132 1932.99781466 76.68098359 1932.67812095 41.88768585 1932.32744287 C34.89679529 1932.2574617 27.90587648 1932.19282622 20.91489792 1932.1323204 C13.72958887 1932.07010291 6.54443981 1931.99973424 -0.6406412 1931.91499506 C-3.9352334 1931.87624113 -7.22962086 1931.84227855 -10.52436626 1931.81792748 C-103.37878248 1931.11330497 -192.48594168 1899.29210162 -262.74359131 1838.23252869 C-263.42163818 1837.65502869 -264.09968506 1837.07752869 -264.79827881 1836.48252869 C-276.15229276 1826.73659397 -286.80613231 1816.41217006 -296.74359131 1805.23252869 C-297.47577881 1804.45006775 -298.20796631 1803.66760681 -298.96234131 1802.86143494 C-305.5611161 1795.77253376 -311.35232093 1788.1031934 -317.14886475 1780.35801697 C-318.6099322 1778.41067262 -320.08485549 1776.4748178 -321.56390381 1774.54112244 C-334.02212368 1758.0994319 -344.09988622 1740.10049269 -354.1317749 1722.11778259 C-356.7573221 1717.41788608 -359.40656298 1712.73143531 -362.05609131 1708.04502869 C-362.58533203 1707.10788025 -363.11457275 1706.17073181 -363.65985107 1705.20518494 C-367.63636804 1698.17058362 -371.64424693 1691.15415671 -375.6595459 1684.14164734 C-382.30144843 1672.54163222 -388.86854254 1660.90182669 -395.38812256 1649.23252869 C-403.7357576 1634.29389556 -412.20101367 1619.42282325 -420.70339966 1604.57188416 C-426.66184829 1594.16075518 -432.53743991 1583.70457738 -438.38812256 1573.23252869 C-446.73670671 1558.29219706 -455.20220148 1543.41898527 -463.7064209 1528.56684875 C-469.0120047 1519.2979531 -474.25041585 1509.99302496 -479.45428467 1500.66661072 C-483.83495558 1492.82686346 -488.27847808 1485.02432701 -492.74359131 1477.23252869 C-499.02533493 1466.26957568 -505.22541414 1455.26288362 -511.38812256 1444.23252869 C-519.7357576 1429.29389556 -528.20101367 1414.42282325 -536.70339966 1399.57188416 C-542.66184829 1389.16075518 -548.53743991 1378.70457738 -554.38812256 1368.23252869 C-562.7357576 1353.29389556 -571.20101367 1338.42282325 -579.70339966 1323.57188416 C-585.66184829 1313.16075518 -591.53743991 1302.70457738 -597.38812256 1292.23252869 C-605.7357576 1277.29389556 -614.20101367 1262.42282325 -622.70339966 1247.57188416 C-628.66184829 1237.16075518 -634.53743991 1226.70457738 -640.38812256 1216.23252869 C-643.6173526 1210.45361255 -646.86249847 1204.68384827 -650.11859131 1198.92002869 C-650.64493164 1197.98787537 -651.17127197 1197.05572205 -651.71356201 1196.09532166 C-654.65092111 1190.90249827 -657.60884834 1185.7221878 -660.58734131 1180.55284119 C-679.98441936 1146.87740384 -697.49629904 1113.23828885 -709.74359131 1076.23252869 C-710.05667236 1075.29409119 -710.36975342 1074.35565369 -710.69232178 1073.38877869 C-723.3458859 1034.73463818 -727.52276271 992.71628524 -726.74359131 952.23252869 C-726.73102295 951.45071228 -726.71845459 950.66889587 -726.70550537 949.86338806 C-725.76013134 902.51751306 -714.31908021 855.2446545 -695.83587646 811.80479431 C-694.82613821 809.42692166 -693.83642559 807.04162485 -692.84906006 804.65440369 C-687.92117072 792.95311025 -681.75501778 782.04675091 -675.38861084 771.07579041 C-673.84520172 768.40815274 -672.31955253 765.73145141 -670.80218506 763.04893494 C-664.34469138 751.641906 -657.69525194 740.35417028 -650.9972229 729.08700562 C-646.31913727 721.21609309 -641.68119723 713.32216927 -637.05609131 705.42002869 C-629.47317584 692.46758351 -621.84634596 679.54154904 -614.20062256 666.62608337 C-607.52258105 655.34322105 -600.86992338 644.04582347 -594.24359131 632.73252869 C-586.59669586 619.67680171 -578.90821682 606.64606381 -571.20062256 593.62608337 C-564.21889945 581.83013683 -557.26884772 570.01608828 -550.34332275 558.18708801 C-544.51907875 548.24100366 -538.65417355 538.31984205 -532.77044678 528.40879822 C-527.83849126 520.09499972 -522.94009929 511.76205792 -518.05609131 503.42002869 C-510.47272221 490.46784788 -502.84634733 477.54155135 -495.20062256 464.62608337 C-488.52258105 453.34322105 -481.86992338 442.04582347 -475.24359131 430.73252869 C-467.59669586 417.67680171 -459.90821682 404.64606381 -452.20062256 391.62608337 C-445.52258105 380.34322105 -438.86992338 369.04582347 -432.24359131 357.73252869 C-424.59669586 344.67680171 -416.90821682 331.64606381 -409.20062256 318.62608337 C-402.52258105 307.34322105 -395.86992338 296.04582347 -389.24359131 284.73252869 C-381.59669586 271.67680171 -373.90821682 258.64606381 -366.20062256 245.62608337 C-364.63112889 242.97435069 -363.06220388 240.32228267 -361.49359131 237.67002869 C-360.96878174 236.78291199 -360.44397217 235.89579529 -359.90325928 234.98179626 C-356.76627165 229.67344403 -353.64344664 224.35703806 -350.53265381 219.03330994 C-333.69112596 190.2130662 -316.60129116 162.07202527 -295.43109131 136.17002869 C-294.58731934 135.13446838 -294.58731934 135.13446838 -293.72650146 134.07798767 C-290.42717288 130.08858757 -286.96862302 126.37308855 -283.27264404 122.74888611 C-281.55860548 121.04907875 -279.98068036 119.27034661 -278.43109131 117.42002869 C-272.4881225 110.54430692 -266.01031108 104.14394514 -259.09515381 98.24815369 C-257.23519825 96.65390607 -255.4036511 95.03893723 -253.57952881 93.40440369 C-243.77212057 84.6739772 -233.43890881 76.84037647 -222.74359131 69.23252869 C-222.00866455 68.70820251 -221.27373779 68.18387634 -220.51654053 67.6436615 C-218.43230945 66.16337031 -216.34042974 64.6948947 -214.24359131 63.23252869 C-213.64619141 62.81213318 -213.0487915 62.39173767 -212.43328857 61.95860291 C-207.09869756 58.29120851 -201.44307323 55.28918477 -195.74359131 52.23252869 C-194.00238972 51.27060839 -192.26277264 50.3058137 -190.52484131 49.33799744 C-150.92778617 27.39989166 -108.3186308 11.52249318 -63.49359131 4.48252869 C-62.2282959 4.28377136 -60.96300049 4.08501404 -59.65936279 3.88023376 C-55.69269037 3.28667038 -51.72103261 2.74757686 -47.74359131 2.23252869 C-47.05644129 2.14326545 -46.36929126 2.05400222 -45.66131851 1.96203404 C-30.4380261 0.05584626 -15.32389533 -0.04384878 0 0 Z M-130.74359131 498.23252869 C-135.85046512 504.3632745 -138.29114339 511.5670687 -138.04827881 519.54112244 C-136.64629326 531.92532808 -131.64247463 542.4470126 -125.74359131 553.23252869 C-125.41842529 553.83983826 -125.09325928 554.44714783 -124.75823975 555.07286072 C-120.14587293 563.66650245 -114.86867899 571.50827841 -109.11175537 579.35362244 C-106.65825861 582.72302127 -104.26687437 586.13622655 -101.86859131 589.54502869 C-100.84913194 590.99039189 -99.82960027 592.4357041 -98.80999756 593.88096619 C-96.79522733 596.73911373 -94.78250619 599.59869146 -92.77093506 602.45909119 C-87.68282479 609.6885038 -82.5588635 616.88854268 -77.36859131 624.04502869 C-72.15830316 631.22977471 -67.05378402 638.48340051 -61.97894287 645.76426697 C-57.54999738 652.1076678 -53.04175647 658.38949045 -48.49969482 664.65220642 C-42.33794859 673.15520986 -36.30321266 681.74673066 -30.26409912 690.33702087 C-24.68090427 698.27568356 -19.0666959 706.18832981 -13.36859131 714.04502869 C-8.15675447 721.23191027 -3.05051339 728.48755644 2.02545166 735.77085876 C5.88343907 741.29700615 9.79640761 746.77909653 13.75640869 752.23252869 C18.92893915 759.35577014 23.99266211 766.5494486 29.02593994 773.77159119 C32.8837931 779.29747398 36.79658009 784.77933406 40.75640869 790.23252869 C45.92893915 797.35577014 50.99266211 804.5494486 56.02593994 811.77159119 C59.8837931 817.29747398 63.79658009 822.77933406 67.75640869 828.23252869 C72.92893915 835.35577014 77.99266211 842.5494486 83.02593994 849.77159119 C86.8837931 855.29747398 90.79658009 860.77933406 94.75640869 866.23252869 C99.32262883 872.52080265 103.81289356 878.85697047 108.25640869 885.23252869 C114.29569048 893.89392163 120.44396684 902.47048503 126.64752197 911.01475525 C129.90114726 915.49972218 133.14115834 919.99453705 136.3838501 924.4874115 C139.07529885 928.21552454 141.7697467 931.9413828 144.47125244 935.66221619 C152.52576766 946.76511199 160.45078405 957.95319675 168.25640869 969.23252869 C168.71644287 969.89317322 169.17647705 970.55381775 169.65045166 971.23448181 C199.07523279 1013.6168625 205.48602182 1053.36289627 205.35512733 1104.1976428 C205.35008551 1106.3655587 205.34698837 1108.53346903 205.3445282 1110.70138931 C205.31314355 1138.2776401 205.11256787 1165.85197161 204.86438465 1193.42708778 C204.44716054 1239.79782423 204.13280523 1286.16923143 204.0791626 1332.54191589 C204.07335271 1337.53506024 204.06300233 1342.52815979 204.04840088 1347.52128601 C204.03176387 1353.36083774 204.02550557 1359.20031207 204.02721214 1365.03988647 C204.02638605 1367.14852296 204.02234213 1369.25716155 204.01452065 1371.36578369 C202.79302062 1409.92295549 202.79302062 1409.92295549 217.03765869 1444.27940369 C222.93204756 1449.93988824 229.13927067 1452.30052649 237.25640869 1452.60752869 C249.26107689 1452.1782008 260.58070068 1449.29925979 271.99859619 1445.75596619 C273.12454697 1445.40754669 274.25049774 1445.0591272 275.41056824 1444.70014954 C288.3399113 1440.64850032 301.10106602 1436.13020286 313.85461807 1431.56072998 C315.85463932 1430.84473739 317.85537749 1430.13078418 319.85635376 1429.41746521 C399.66302102 1408.39545875 399.66302102 1408.39545875 461.25640869 1361.23252869 C466.90791165 1348.47946609 467.55120344 1334.30374501 467.47319031 1320.5405426 C467.46868614 1319.73998916 467.46418198 1318.93943571 467.45954132 1318.11462307 C467.45438255 1317.28728192 467.44922379 1316.45994078 467.44390869 1315.60752869 C467.43923332 1314.80914865 467.43455795 1314.0107686 467.42974091 1313.18819523 C467.35361237 1301.09009374 467.16758168 1288.99892944 466.8757 1276.90424156 C466.15439653 1246.68196477 465.73177193 1216.45448537 465.29361767 1186.22710013 C465.21669547 1180.93875323 465.1370183 1175.65045251 465.05596924 1170.36216736 C464.17449913 1112.75338035 464.17449913 1112.75338035 464.08444405 1085.6990757 C464.07687905 1083.68033144 464.06612837 1081.66159575 464.05167961 1079.64288902 C463.82201059 1045.15750326 470.24119283 1017.11836038 489.75640869 988.29502869 C490.35952881 987.39751892 490.96264893 986.50000916 491.58404541 985.57530212 C497.47954941 976.83522126 503.5143874 968.19385277 509.59674072 959.58311462 C511.18342873 957.33589013 512.76556664 955.08554021 514.34625244 952.83409119 C519.94023559 944.87556561 525.61073756 936.97737712 531.32867432 929.10752869 C535.25902102 923.67343789 539.05850062 918.16021252 542.81890869 912.60752869 C547.32871291 905.95135791 552.01238339 899.47339234 556.87994385 893.07530212 C560.76725647 887.94430563 564.43149742 882.68733817 568.04864502 877.3636322 C571.47072338 872.33983359 574.9948626 867.39918883 578.56890869 862.48252869 C583.19868545 856.11150385 587.75421442 849.69434027 592.25640869 843.23252869 C597.22070016 836.10916441 602.26029851 829.04712324 607.36187744 822.02159119 C611.38687829 816.46650527 615.3341325 810.86051881 619.25640869 805.23252869 C624.22079856 798.10923197 629.26029719 791.04712506 634.36187744 784.02159119 C638.38687829 778.46650527 642.3341325 772.86051881 646.25640869 767.23252869 C651.22079856 760.10923197 656.26029719 753.04712506 661.36187744 746.02159119 C665.38687829 740.46650527 669.3341325 734.86051881 673.25640869 729.23252869 C678.22079856 722.10923197 683.26029719 715.04712506 688.36187744 708.02159119 C692.38687829 702.46650527 696.3341325 696.86051881 700.25640869 691.23252869 C705.22079856 684.10923197 710.26029719 677.04712506 715.36187744 670.02159119 C719.38687829 664.46650527 723.3341325 658.86051881 727.25640869 653.23252869 C732.22079856 646.10923197 737.26029719 639.04712506 742.36187744 632.02159119 C746.99410237 625.62844782 751.51933797 619.16372467 756.03033447 612.68467712 C759.32122184 607.96728339 762.65579654 603.28805816 766.05084229 598.64512634 C771.7590885 590.83486299 777.25225314 582.89826502 782.63140869 574.85752869 C783.28544678 573.8833197 783.93948486 572.90911072 784.61334229 571.90538025 C795.33718578 555.7690695 809.11627966 534.66471795 806.25640869 514.23252869 C803.99568737 505.34765079 800.51027833 499.14752383 792.69390869 494.10752869 C778.87989421 486.28981975 764.00878677 484.92496472 748.42482376 484.97805309 C746.95242092 484.97565884 745.4800193 484.97239084 744.0076201 484.96833649 C739.97524811 484.95975312 735.94296975 484.96352764 731.91059643 484.96939222 C727.51836588 484.97357446 723.12615204 484.96615381 718.73392558 484.96023971 C711.04033327 484.95148545 703.34676759 484.95016285 695.65317154 484.95374298 C684.21227097 484.95905281 672.77139614 484.95295184 661.33049837 484.94466005 C639.70761793 484.92941968 618.08474919 484.92771503 596.4618645 484.93018308 C579.76415365 484.93201578 563.06644664 484.93025661 546.36873627 484.92595863 C543.96973172 484.92535623 541.57072718 484.92475503 539.17172264 484.92415503 C535.55664012 484.92324778 531.9415576 484.92233911 528.32647509 484.92142268 C494.71495035 484.91299302 461.10342705 484.90865754 427.4919014 484.9128294 C426.22480298 484.91298578 424.95770457 484.91314215 423.65220923 484.91330327 C417.23006726 484.91410905 410.8079253 484.91495482 404.38578334 484.91581657 C403.11032835 484.91598766 401.83487335 484.91615874 400.5207682 484.91633502 C397.94148836 484.91668167 395.36220851 484.9170302 392.78292867 484.9173806 C352.64907999 484.92273784 312.51525328 484.91480736 272.38140869 484.89634705 C227.28895497 484.87563021 182.19651486 484.86490373 137.10405612 484.86892253 C132.29581881 484.86931788 127.48758149 484.86967942 122.67934418 484.87001991 C121.49543784 484.87011064 120.3115315 484.87020138 119.09174921 484.87029486 C101.22096317 484.87146074 83.35019087 484.86481322 65.47940826 484.85420799 C45.1544594 484.84215866 24.82954081 484.84059397 4.50459149 484.85299816 C-6.86767073 484.85962801 -18.23986057 484.85799276 -29.61211701 484.84440965 C-37.21254639 484.83616424 -44.81292156 484.83886391 -52.41334654 484.85038491 C-56.74106949 484.85664037 -61.0686512 484.8582446 -65.39636597 484.84652158 C-69.34188279 484.83593251 -73.28713959 484.83942055 -77.23264277 484.85362611 C-78.64290376 484.85633028 -80.05318606 484.85413492 -81.46342686 484.84611896 C-98.15419987 484.75780504 -117.66193563 486.78278982 -130.74359131 498.23252869 Z " fill="#600293" transform="translate(2519.7435913085938,-0.2325286865234375)"/>
<path d="M0 0 C0.73728333 -0.00100708 1.47456665 -0.00201416 2.23419189 -0.00305176 C16.24687807 0.00976829 29.96100363 1.04440826 43.8125 3.25 C44.68970703 3.38921875 45.56691406 3.5284375 46.47070312 3.671875 C99.41697854 12.44884775 149.26982942 38.09583751 187.8125 75.25 C188.36856934 75.78415527 188.92463867 76.31831055 189.49755859 76.86865234 C196.81801433 83.93704074 203.52754402 91.22919903 209.8125 99.25 C210.49957031 100.09304687 211.18664062 100.93609375 211.89453125 101.8046875 C216.48227569 107.43629731 220.72493427 113.24638783 224.8125 119.25 C228.30824021 116.61762914 230.98880019 113.98533365 233.625 110.5 C236.8613793 106.34593281 240.30026185 102.6450951 244.078125 98.984375 C245.94406666 97.18917343 245.94406666 97.18917343 247.8125 94.6875 C250.12333248 91.87117291 252.68271714 89.66054528 255.453125 87.3046875 C257.10177886 85.86893927 258.71412607 84.39090346 260.296875 82.8828125 C318.73131219 27.25454885 404.23418378 -1.64515603 483.99653625 0.07653809 C531.68123771 1.30440582 579.27231317 16.56250889 618.8125 43.25 C619.39902344 43.64509766 619.98554687 44.04019531 620.58984375 44.44726562 C644.9158813 60.99872324 669.15283423 81.63174071 686.8125 105.25 C687.54629883 106.22573975 687.54629883 106.22573975 688.29492188 107.22119141 C695.77284532 117.2104583 702.72087667 127.35810232 708.8125 138.25 C709.21033691 138.95141113 709.60817383 139.65282227 710.01806641 140.37548828 C717.23412464 153.18870756 722.85120638 166.41671694 727.8125 180.25 C728.10108887 181.05373047 728.38967773 181.85746094 728.68701172 182.68554688 C738.53261576 210.65965901 743.11959302 240.47546251 744.36748409 270.03318119 C744.43069947 271.5225378 744.43069947 271.5225378 744.49519193 273.04198242 C744.91141585 283.60199124 744.94899155 294.15239882 744.93275452 304.71910095 C744.93319195 306.87972274 744.93407002 309.04034448 744.93534368 311.20096594 C744.93755479 317.06642462 744.93361439 322.93186465 744.92856562 328.79732096 C744.92421207 335.14939596 744.925711 341.50147007 744.9264679 347.85354614 C744.92699004 358.83519172 744.92391099 369.81683122 744.91823006 380.79847527 C744.91229357 392.30386318 744.9084602 403.8092487 744.90737724 415.31463814 C744.9073085 416.0325711 744.90723976 416.75050407 744.90716894 417.49019258 C744.90683056 421.13686984 744.9065292 424.7835471 744.90624207 428.43022437 C744.90414699 454.19542789 744.89742461 479.9606283 744.88793945 505.72583008 C744.87874093 530.74145491 744.87166424 555.75707889 744.86743164 580.77270508 C744.86730011 581.54509499 744.86716859 582.31748491 744.86703308 583.11328058 C744.86571445 590.87061388 744.86443865 598.62794719 744.86319422 606.3852805 C744.86065866 622.18495938 744.8578374 637.98463821 744.85484314 653.78431702 C744.85470585 654.5106081 744.85456856 655.23689918 744.85442711 655.98519908 C744.85020776 678.22686303 744.84477865 700.46852646 744.83815002 722.71018982 C744.83777947 723.95519782 744.83740891 725.20020582 744.83702713 726.48294134 C744.82953584 751.40529445 744.82086541 776.32764717 744.8125 801.25 C675.8425 801.25 606.8725 801.25 535.8125 801.25 C535.76351562 768.73210938 535.71453125 736.21421875 535.6640625 702.7109375 C535.62868083 682.12109118 535.592816 661.5312474 535.5546875 640.94140625 C535.53595403 630.81223932 535.5173006 620.68307225 535.49887431 610.55390476 C535.49637499 609.18013325 535.4938728 607.80636175 535.4913677 606.43259026 C535.45152338 584.5693355 535.4179996 562.70607673 535.38781309 540.84280668 C535.3558466 517.71549215 535.31657705 494.58819845 535.26970994 471.46090853 C535.2418952 457.62021792 535.2198319 443.77954309 535.20523749 429.93883212 C535.19465657 420.43451851 535.17679344 410.93023555 535.15333296 401.42594509 C535.14002943 395.95094064 535.12981261 390.47597896 535.12828636 385.00095749 C535.26383322 355.06125524 535.26383322 355.06125524 532.8125 325.25 C532.58120612 323.43515138 532.58120612 323.43515138 532.34523964 321.58363914 C531.97370118 318.81356573 531.54027376 316.06606604 531.0625 313.3125 C530.89331055 312.32926758 530.72412109 311.34603516 530.54980469 310.33300781 C523.85185483 273.01245947 509.42361467 234.83681297 477.52319336 212.00488281 C446.55727235 190.73281282 405.29021137 187.05196202 368.9765625 193.21875 C336.65518069 199.39153379 308.40397078 214.42080498 289.30126953 241.77929688 C285.00416461 248.21511082 281.1933641 255.03351948 277.88260102 262.02790272 C277.21813811 263.40768014 276.51641947 264.77091446 275.75967002 266.10231483 C271.20489718 275.23087559 272.25371464 285.52750961 272.29351807 295.45950317 C272.28763995 297.64190876 272.28001141 299.82431021 272.270787 302.00670421 C272.25053692 307.99281293 272.25507815 313.97868451 272.26369452 319.9648118 C272.26863938 326.42416459 272.25055439 332.88345782 272.23527527 339.3427887 C272.21127228 350.53038735 272.20307569 361.71792934 272.20438385 372.90555191 C272.20569488 384.63661981 272.19874532 396.36763514 272.18080902 408.09869003 C272.17914194 409.19356607 272.17914194 409.19356607 272.17744118 410.31056081 C272.17175394 414.01757508 272.16591956 417.72458911 272.16002855 421.43160306 C272.11858759 447.67542555 272.0955989 473.9192349 272.08349609 500.16308594 C272.07169747 525.65561412 272.05151933 551.14811321 272.02001953 576.640625 C272.01905158 577.4266772 272.01808363 578.21272941 272.01708635 579.02260138 C272.00735637 586.91659713 271.99745629 594.81059267 271.98743158 602.70458806 C271.96701472 618.78498096 271.94773311 634.86537516 271.92913818 650.94577026 C271.92828185 651.68509003 271.92742553 652.42440979 271.92654325 653.18613318 C271.90036019 675.84308977 271.87898805 698.50004733 271.86236572 721.15701294 C271.86096614 723.06073417 271.86096614 723.06073417 271.85953829 725.00291441 C271.84114487 750.4186079 271.82742755 775.83430429 271.8125 801.25 C203.8325 801.25 135.8525 801.25 65.8125 801.25 C65.76351563 770.33828125 65.71453125 739.4265625 65.6640625 707.578125 C65.62866592 687.96353901 65.59279112 668.34895564 65.5546875 648.734375 C65.53468313 638.42382841 65.51479928 628.11328159 65.49511719 617.80273438 C65.49264575 616.51069155 65.49017431 615.21864872 65.48762798 613.88745308 C65.44804004 593.09962685 65.41524009 572.31179528 65.38500018 551.52395359 C65.35375233 530.14844927 65.31508735 508.77296739 65.26970994 487.39748836 C65.24199733 474.23551771 65.2198908 461.07356324 65.20523749 447.91157147 C65.19459601 438.85381589 65.17667172 429.79609186 65.15333296 420.7383602 C65.14012586 415.53300675 65.12982811 410.32769698 65.12828636 405.1223259 C65.12055114 385.85037352 64.97134219 366.62221117 63.90585327 347.37567139 C63.86631289 346.64704766 63.82677251 345.91842394 63.78603394 345.16772071 C61.22135784 299.24772402 49.65560671 249.90348785 14.23828125 217.92578125 C8.77445894 213.422631 3.01231449 209.6561855 -3.1875 206.25 C-4.08984375 205.74597656 -4.9921875 205.24195312 -5.921875 204.72265625 C-38.91001869 187.20327723 -82.33256218 186.92102823 -117.63037109 197.06787109 C-148.42643127 206.61859175 -173.44942864 226.92717021 -188.68237305 255.30981445 C-192.05311108 261.72152295 -192.05311108 261.72152295 -195.1875 268.25 C-195.51177892 268.81861185 -195.83605784 269.3872237 -196.17016339 269.97306621 C-200.74251569 279.14534895 -199.74679183 289.32675398 -199.70648193 299.30764771 C-199.71236014 301.47355413 -199.71998872 303.63945638 -199.729213 305.80535114 C-199.74946192 311.74585412 -199.74492216 317.68611814 -199.73630548 323.62663984 C-199.7313604 330.03691262 -199.74944587 336.4471254 -199.76472473 342.8573761 C-199.78803988 353.95985474 -199.79692433 365.06226633 -199.79561615 376.16476822 C-199.7943051 387.80652151 -199.80125497 399.44822183 -199.81919098 411.08996201 C-199.82030237 411.81433398 -199.82141376 412.53870594 -199.82255882 413.28502858 C-199.82824606 416.96388267 -199.83408044 420.64273652 -199.83997145 424.32159029 C-199.88141192 450.36575553 -199.90440099 476.40990754 -199.91650391 502.45410156 C-199.92830262 527.75261944 -199.94848092 553.05110802 -199.97998047 578.34960938 C-199.9814324 579.51972335 -199.9814324 579.51972335 -199.98291365 580.71347598 C-199.99264363 588.54745814 -200.00254371 596.38144008 -200.01256842 604.21542187 C-200.03298526 620.17355115 -200.05226687 636.13168173 -200.07086182 652.08981323 C-200.07171815 652.82351104 -200.07257447 653.55720885 -200.07345675 654.31313992 C-200.0996397 676.79771533 -200.12101188 699.28229172 -200.13763428 721.76687622 C-200.13903386 723.65610576 -200.13903386 723.65610576 -200.14046171 725.58350156 C-200.15885509 750.80566598 -200.17257244 776.02783334 -200.1875 801.25 C-268.1675 801.25 -336.1475 801.25 -406.1875 801.25 C-406.1875 542.53 -406.1875 283.81 -406.1875 17.25 C-338.2075 17.25 -270.2275 17.25 -200.1875 17.25 C-199.8575 44.31 -199.5275 71.37 -199.1875 99.25 C-195.8875 94.96 -192.5875 90.67 -189.1875 86.25 C-186.96689756 83.70902431 -184.76767372 81.24088707 -182.4375 78.8125 C-181.85387695 78.19689209 -181.27025391 77.58128418 -180.66894531 76.94702148 C-178.8510232 75.03888414 -177.02151195 73.14266905 -175.1875 71.25 C-174.58292969 70.62351562 -173.97835937 69.99703125 -173.35546875 69.3515625 C-166.35216517 62.12331341 -159.32855091 55.20797581 -151.1875 49.25 C-150.29321289 48.58967773 -150.29321289 48.58967773 -149.38085938 47.91601562 C-139.05291904 40.32462474 -128.46423207 33.35303156 -117.1875 27.25 C-116.14215088 26.68418213 -116.14215088 26.68418213 -115.07568359 26.10693359 C-79.9199489 7.48367758 -39.46444355 0.03788123 0 0 Z " fill="#000000" transform="translate(406.1875,2559.75)"/>
<path d="M0 0 C1.75895096 -0.00101212 1.75895096 -0.00101212 3.55343628 -0.00204468 C89.11050388 0.07592725 168.76687637 26.38462915 235.5 80.25 C236.11101563 80.74097168 236.72203125 81.23194336 237.3515625 81.73779297 C246.56184635 89.21598588 254.97087938 97.51816858 263.375 105.875 C263.90956818 106.40421051 264.44413635 106.93342102 264.99490356 107.47866821 C271.96644879 114.39713775 278.43088903 121.50944536 284.5 129.25 C285.07314941 129.96913574 285.64629883 130.68827148 286.23681641 131.42919922 C330.21740933 186.87831928 352.71294818 254.55419683 361.6875 324.125 C361.8424292 325.30352539 361.9973584 326.48205078 362.15698242 327.69628906 C365.11023961 351.86894836 365.83374991 376.02427316 365.76074219 400.34399414 C365.74932086 404.1778878 365.75596821 408.01150188 365.76788712 411.84538555 C365.7752662 414.89943891 365.77274682 417.95343067 365.76763153 421.00748634 C365.76634037 422.41782481 365.76777333 423.82816977 365.77259064 425.2385006 C365.80942405 439.02433207 364.56362831 452.42283202 363.5 466.25 C178.37 466.25 -6.76 466.25 -197.5 466.25 C-188.06737877 503.98048492 -175.15767956 544.18658176 -145.94140625 571.84375 C-144.5 573.25 -144.5 573.25 -142.5625 575.75 C-139.57829949 579.36721274 -136.07642362 582.23147497 -132.5 585.25 C-131.62214844 586.01570313 -130.74429688 586.78140625 -129.83984375 587.5703125 C-89.46390708 622.2403631 -37.04280828 636.50716629 15.64160156 633.04345703 C53.53310462 629.99438415 89.67523317 618.30083089 119.5 594.25 C120.39589844 593.55648437 121.29179687 592.86296875 122.21484375 592.1484375 C140.92914509 577.38105481 154.45574005 558.99507841 167.5 539.25 C180.60826797 545.38446292 193.60391648 551.72284822 206.54296875 558.20629883 C209.49590828 559.68545042 212.45096632 561.16030414 215.40625 562.63476562 C217.35429493 563.60911861 219.3022157 564.58371986 221.25 565.55859375 C222.09852539 565.98184433 222.94705078 566.40509491 223.82128906 566.84117126 C228.89496608 569.38732763 233.92933113 571.99990788 238.94493294 574.65810394 C249.38576998 580.18893033 259.92506447 585.49844826 270.51633072 590.73461723 C274.56949185 592.73972882 278.61862226 594.75292142 282.66808891 596.765481 C290.16270461 600.4900838 297.65906008 604.21110179 305.16162109 607.91967773 C310.42677497 610.52266793 315.68706492 613.1352563 320.94421005 615.75438118 C322.93998897 616.7463928 324.93757835 617.7347706 326.93698502 618.71945 C329.71018345 620.08568176 332.47702365 621.46403043 335.24267578 622.84545898 C336.0694986 623.24909668 336.89632141 623.65273437 337.74819946 624.06860352 C338.49621826 624.445327 339.24423706 624.82205048 340.0149231 625.21018982 C340.66776339 625.53365607 341.32060368 625.85712233 341.99322701 626.19039059 C343.5 627.25 343.5 627.25 344.5 630.25 C343.48706055 632.40380859 343.48706055 632.40380859 341.88671875 634.8984375 C341.302854 635.81536377 340.71898926 636.73229004 340.11743164 637.67700195 C339.4805542 638.64984131 338.84367676 639.62268066 338.1875 640.625 C337.22541626 642.11422974 337.22541626 642.11422974 336.24389648 643.63354492 C331.33858171 651.14988149 326.1394795 658.27216577 320.5 665.25 C319.35180502 666.74819301 318.20580112 668.24806905 317.0625 669.75 C314.16487754 673.46577468 311.16231535 677.08584883 308.125 680.6875 C307.4918689 681.43966797 307.4918689 681.43966797 306.84594727 682.20703125 C299.24849915 691.15422216 291.25421098 699.65692245 282.9375 707.9375 C282.04353516 708.83533203 281.14957031 709.73316406 280.22851562 710.65820312 C275.14881199 715.73047486 269.98879049 720.62323338 264.5 725.25 C263.89099854 725.76570557 263.28199707 726.28141113 262.65454102 726.81274414 C253.29256922 734.67013553 243.61301025 741.95817227 233.52880859 748.86083984 C231.62361469 750.1653589 229.7276154 751.48236004 227.83203125 752.80078125 C218.25732749 759.38983874 208.25232774 765.17835725 198.09179688 770.8125 C196.4493077 771.72348118 194.80961459 772.63953736 193.17382812 773.5625 C134.47898716 806.60093291 65.79704862 819.75372848 -0.9375 819.5625 C-2.27206409 819.56057611 -3.60662831 819.55873564 -4.94119263 819.55697632 C-24.61533237 819.51928852 -44.00682432 819.11306018 -63.5 816.25 C-64.71945312 816.07307617 -65.93890625 815.89615234 -67.1953125 815.71386719 C-132.29888021 805.95844128 -195.76324611 781.98065349 -247.58007812 740.76855469 C-249.44012559 739.29735743 -251.31733435 737.85205335 -253.203125 736.4140625 C-260.35835373 730.93215545 -267.06668921 725.12363482 -273.625 718.94140625 C-275.83432177 716.87316889 -278.06255078 714.88613717 -280.375 712.9375 C-289.74846754 704.82315496 -298.52823951 695.73516314 -306.5 686.25 C-307.34175781 685.29738281 -308.18351562 684.34476563 -309.05078125 683.36328125 C-321.74305675 668.95071259 -333.21648793 653.4663075 -343.5 637.25 C-344.19867187 636.15816406 -344.89734375 635.06632812 -345.6171875 633.94140625 C-362.14379049 607.54828815 -374.98816988 578.85519459 -384.5 549.25 C-384.8000293 548.32203613 -385.10005859 547.39407227 -385.40917969 546.43798828 C-392.63606121 523.7682776 -397.61856197 500.38155995 -400.8125 476.8125 C-401.03329224 475.18513916 -401.03329224 475.18513916 -401.25854492 473.52490234 C-403.79131905 453.28938571 -404.83700108 433.03009568 -404.76074219 412.64550781 C-404.75000149 409.2504696 -404.7607367 405.85596019 -404.7734375 402.4609375 C-404.78841673 381.12043453 -403.38506434 359.92559924 -400.25 338.8125 C-400.14395447 338.08395813 -400.03790894 337.35541626 -399.9286499 336.60479736 C-397.83542147 322.31757863 -395.03689289 308.25435996 -391.5 294.25 C-391.23993164 293.21262695 -390.97986328 292.17525391 -390.71191406 291.10644531 C-376.89364056 236.89889747 -350.71864393 184.95335048 -313.82568359 142.78613281 C-312.49970406 141.24965708 -311.20967864 139.68893032 -309.92578125 138.1171875 C-303.45499425 130.26433629 -296.44019145 123.00179605 -289.25 115.8125 C-288.77823334 115.33982697 -288.30646667 114.86715393 -287.82040405 114.38015747 C-282.22179286 108.7827635 -276.52239796 103.38727809 -270.5 98.25 C-269.40505193 97.28912394 -268.3112549 96.32693425 -267.21875 95.36328125 C-248.45915944 78.97536052 -227.96802553 64.84541527 -206.5 52.25 C-205.37247314 51.58532715 -205.37247314 51.58532715 -204.22216797 50.90722656 C-182.22940516 38.05973679 -158.75966748 27.94582836 -134.5 20.25 C-133.66774902 19.9813916 -132.83549805 19.7127832 -131.97802734 19.43603516 C-102.73305019 10.05054556 -72.14538407 3.6320214 -41.5 1.25 C-39.93233887 1.12189941 -39.93233887 1.12189941 -38.33300781 0.99121094 C-25.56509656 0.06281708 -12.79718964 0.00663994 0 0 Z M-38.5 187.25 C-39.37221191 187.42160645 -40.24442383 187.59321289 -41.14306641 187.77001953 C-60.05773131 191.6134025 -77.52459714 198.12175944 -94.5 207.25 C-95.09087402 207.56018066 -95.68174805 207.87036133 -96.29052734 208.18994141 C-118.70788432 220.00137134 -138.90020292 237.39087266 -154.5 257.25 C-155.25539063 258.21164062 -156.01078125 259.17328125 -156.7890625 260.1640625 C-164.54966754 270.27151718 -170.90925019 280.95880295 -176.875 292.1875 C-177.30417725 292.9926001 -177.73335449 293.7977002 -178.17553711 294.62719727 C-178.57909424 295.39862061 -178.98265137 296.17004395 -179.3984375 296.96484375 C-179.75599121 297.64667725 -180.11354492 298.32851074 -180.48193359 299.03100586 C-181.69896963 301.68367745 -182.57707837 304.48123512 -183.5 307.25 C-70.64 307.25 42.22 307.25 158.5 307.25 C158.60858514 296.10124777 158.60858514 296.10124777 156.9375 285.4375 C156.76114014 284.68033691 156.58478027 283.92317383 156.40307617 283.14306641 C154.39314751 275.06461833 151.25104788 267.66056213 147.5 260.25 C147.16339355 259.58226563 146.82678711 258.91453125 146.47998047 258.2265625 C141.22808414 247.99234921 134.91700966 239.02122304 127.5 230.25 C126.77554688 229.38375 126.05109375 228.5175 125.3046875 227.625 C101.06756495 199.49092833 63.16288477 187.91096768 27.20556641 184.71704102 C5.42871679 183.18172672 -17.03629096 182.96394861 -38.5 187.25 Z " fill="#000000" transform="translate(3714.5,2541.75)"/>
<path d="M0 0 C227.37 0 454.74 0 689 0 C689 64.02 689 128.04 689 194 C534.23 194 379.46 194 220 194 C220 275.18 220 356.36 220 440 C359.59 440 499.18 440 643 440 C643 504.02 643 568.04 643 634 C503.41 634 363.82 634 220 634 C220 752.8 220 871.6 220 994 C147.4 994 74.8 994 0 994 C0 665.98 0 337.96 0 0 Z " fill="#000000" transform="translate(1267,2367)"/>
<path d="M0 0 C66 0 132 0 200 0 C200 70.29 200 140.58 200 213 C266.99 213 333.98 213 403 213 C403 275.37 403 337.74 403 402 C336.01 402 269.02 402 200 402 C200.11981691 455.3965114 200.11981691 455.3965114 200.2578125 508.79296875 C200.2778167 516.01350871 200.29770052 523.23404899 200.31738281 530.45458984 C200.31985425 531.35940861 200.32232569 532.26422738 200.32487202 533.1964649 C200.36445397 547.75192381 200.39725653 562.30739036 200.42749982 576.86287133 C200.45875382 591.83116383 200.49742128 606.79942434 200.54279006 621.76768076 C200.57049502 630.98351344 200.59260474 640.19932307 200.60726251 649.41518588 C200.61790858 655.75834386 200.63583737 662.10145685 200.65916704 668.44458072 C200.67236697 672.08924365 200.6826707 675.73384433 200.68421364 679.37853241 C200.70576132 717.00214799 201.31572567 760.12850804 220 794 C220.48210937 794.89460938 220.96421875 795.78921875 221.4609375 796.7109375 C230.07710727 811.89180804 243.83710384 822.26804837 260.54907227 827.32666016 C269.64589805 829.82581799 278.53556965 830.35497766 287.9375 830.3125 C289.21004639 830.30831055 290.48259277 830.30412109 291.79370117 830.29980469 C302.4178241 830.1738137 312.60877905 829.18652011 323 827 C323.69303223 826.85546387 324.38606445 826.71092773 325.10009766 826.56201172 C351.10618773 820.95334219 374.61683761 810.84926626 395.7878418 794.73120117 C396.39152588 794.27720947 396.99520996 793.82321777 397.6171875 793.35546875 C398.41552002 792.74674927 398.41552002 792.74674927 399.22998047 792.12573242 C401.38495442 790.75516899 403.61187586 789.88987813 406 789 C415.83143811 811.18271656 425.5340496 833.41807472 435.14355469 855.69775391 C437.33432973 860.776138 439.53034555 865.85223661 441.72949219 870.92700195 C442.73972974 873.25940494 443.74820598 875.59257164 444.75488281 877.92651367 C447.76304477 884.88904295 450.80865026 891.83335211 453.89001465 898.76383972 C455.76057329 902.97575886 457.62063007 907.19227949 459.4798584 911.40921021 C460.40575593 913.50191766 461.33646232 915.59250446 462.27209473 917.68087769 C463.58683345 920.61665154 464.88485615 923.5593092 466.1796875 926.50390625 C466.58103912 927.38901886 466.98239075 928.27413147 467.39590454 929.18606567 C467.75493866 930.01097504 468.11397278 930.8358844 468.48388672 931.68579102 C468.80219452 932.40138687 469.12050232 933.11698273 469.44845581 933.85426331 C470.14712227 936.57236693 469.78930107 938.3262216 469 941 C439.12762633 982.10003121 368.86525386 1004.24380605 321.078125 1012 C308.50163099 1013.90585847 296.00914456 1015.14816749 283.28125 1015.203125 C281.64863976 1015.21357849 281.64863976 1015.21357849 279.98304749 1015.22424316 C276.4886586 1015.24154882 272.99442996 1015.24796308 269.5 1015.25 C268.30881561 1015.25100708 267.11763123 1015.25201416 265.89035034 1015.25305176 C248.72154377 1015.24321249 231.97004366 1014.81872213 215 1012 C213.13151763 1011.71870208 211.26302804 1011.4374521 209.39453125 1011.15625 C172.27908566 1005.25879313 135.44653117 991.23742851 105 969 C104.43104004 968.58508301 103.86208008 968.17016602 103.27587891 967.74267578 C95.81010088 962.24635859 88.732486 956.37983197 82 950 C81.10539062 949.15824219 80.21078125 948.31648438 79.2890625 947.44921875 C67.18112966 935.73131736 58.38948277 922.49121204 50 908 C49.6095752 907.33581055 49.21915039 906.67162109 48.81689453 905.98730469 C21.52513586 859.12362537 11.41595046 800.11619345 5 747 C4.89204102 746.12956055 4.78408203 745.25912109 4.67285156 744.36230469 C3.1567287 731.80962416 2.57420593 719.18378473 1.9375 706.5625 C1.87692413 705.38681458 1.87692413 705.38681458 1.81512451 704.18737793 C-0.04978831 667.36424631 -0.14201344 630.53496932 -0.10139394 593.67440271 C-0.09568753 587.59944204 -0.09476268 581.52448233 -0.09374207 575.44951938 C-0.09157732 563.45234528 -0.08498889 551.45517815 -0.07543945 539.45800781 C-0.06619743 527.83463575 -0.05916178 516.21126563 -0.05493164 504.58789062 C-0.05466364 503.85878628 -0.05439565 503.12968194 -0.05411953 502.37848353 C-0.0518053 496.03191809 -0.04965315 489.68535259 -0.04751682 483.33878708 C-0.03818204 456.22585147 -0.01824013 429.11293447 0 402 C-42.24 402 -84.48 402 -128 402 C-128 339.63 -128 277.26 -128 213 C-85.76 213 -43.52 213 0 213 C0 142.71 0 72.42 0 0 Z " fill="#000000" transform="translate(5238,2346)"/>
<path d="M0 0 C66 0 132 0 200 0 C200 70.29 200 140.58 200 213 C266.99 213 333.98 213 403 213 C403 275.37 403 337.74 403 402 C336.01 402 269.02 402 200 402 C200.119904 453.65041824 200.119904 453.65041824 200.2578125 505.30078125 C200.27781521 512.29378214 200.29769879 519.28678336 200.31738281 526.27978516 C200.31985425 527.15603102 200.32232569 528.03227688 200.32487202 528.93507564 C200.36440062 543.01127557 200.39722636 557.08748335 200.42749982 571.16370589 C200.45880867 585.6506426 200.49749799 600.1375466 200.54279006 614.62444639 C200.57042687 623.53623781 200.59256488 632.44800581 200.60726251 641.35982811 C200.61794953 647.50259376 200.63591805 653.64531355 200.65916704 659.78804433 C200.67230303 663.31193476 200.68266009 666.83576209 200.68421364 670.35967827 C200.69713913 684.96567603 201.00842477 699.51056107 201.90664673 714.08752441 C202.02487276 716.03202177 202.02487276 716.03202177 202.14548719 718.01580191 C204.07690129 746.95314057 209.18320862 783.1097616 228.484375 806.0625 C230 808 230 808 230.953125 810.125 C232.29130516 812.52174059 233.51993753 812.89975411 236 814 C237.46969526 815.06786847 238.92700611 816.15288518 240.375 817.25 C254.88158938 827.45991628 271.14453006 830.57222959 288.625 830.375 C289.93315674 830.36557373 291.24131348 830.35614746 292.58911133 830.34643555 C331.86515096 829.74010761 372.06859226 815.64590294 402.1640625 790.16796875 C402.76992187 789.78253906 403.37578125 789.39710938 404 789 C407 790 407 790 408.49194336 792.7800293 C409.03566704 794.04003107 409.56732845 795.30527522 410.08984375 796.57421875 C410.38618713 797.26860046 410.68253052 797.96298218 410.987854 798.67840576 C411.9808713 801.01074069 412.95882831 803.34911341 413.9375 805.6875 C414.63913387 807.34110583 415.3420427 808.9941712 416.04614258 810.64672852 C417.17090411 813.28720141 418.29472809 815.92804071 419.41471863 818.57054138 C423.5119376 828.23530994 427.70347296 837.85849515 431.89886475 847.48095703 C434.03721114 852.38701013 436.17071447 857.29516846 438.3046875 862.203125 C439.11815757 864.07357053 439.93163395 865.94401332 440.74511719 867.81445312 C442.70838481 872.32912197 444.67130556 876.84394087 446.6328125 881.359375 C446.90528809 881.9865593 447.17776367 882.61374359 447.45849609 883.25993347 C449.2474318 887.37997759 451.02683583 891.50407004 452.8046875 895.62890625 C454.87870226 900.43479357 456.98262431 905.22604077 459.10719299 910.00978088 C460.54361258 913.25069363 461.96742371 916.49706354 463.38949585 919.74429321 C464.08277773 921.3191924 464.78161233 922.89166004 465.48623657 924.46151733 C466.46226418 926.63759088 467.41863122 928.82134363 468.37109375 931.0078125 C468.66819244 931.65737411 468.96529114 932.30693573 469.27139282 932.97618103 C471.17326847 937.41686067 471.17326847 937.41686067 470.33007812 940.25463867 C468.13997831 943.12854167 465.63336848 945.66020556 463.0625 948.1875 C462.47839355 948.76338867 461.89428711 949.33927734 461.29248047 949.93261719 C447.29762657 963.57370065 431.52998555 972.68833622 414 981 C413.19739746 981.38269043 412.39479492 981.76538086 411.56787109 982.15966797 C384.83470987 994.82919481 357.37946526 1005.29347233 328.25 1010.8125 C327.22269775 1011.00755127 326.19539551 1011.20260254 325.13696289 1011.40356445 C306.64247246 1014.68295513 288.24786535 1015.37452501 269.5 1015.3125 C267.78287811 1015.30976578 267.78287811 1015.30976578 266.03106689 1015.30697632 C248.82720112 1015.26088998 232.00736267 1014.78701298 215 1012 C213.40091797 1011.75056641 213.40091797 1011.75056641 211.76953125 1011.49609375 C182.16815606 1006.76687996 154.42911293 997.01564976 128 983 C126.84242188 982.38640625 125.68484375 981.7728125 124.4921875 981.140625 C108.94933345 972.57258245 95.07080783 961.95917838 82 950 C81.18273438 949.26652344 80.36546875 948.53304687 79.5234375 947.77734375 C68.5083298 937.38308758 59.33410667 924.18055832 52 911 C51.55833496 910.2147998 51.11666992 909.42959961 50.66162109 908.62060547 C6.97288777 830.21428105 1.70301739 734.11969339 0.44140625 646.48828125 C0.43098148 645.7832466 0.4205567 645.07821194 0.40981603 644.3518126 C-0.24633487 599.81327074 -0.1156675 555.26892827 -0.07202756 510.7268039 C-0.05841603 496.58159386 -0.0532938 482.43638035 -0.04751682 468.29116535 C-0.03828315 446.19410188 -0.01831417 424.09706214 0 402 C-42.24 402 -84.48 402 -128 402 C-128 339.63 -128 277.26 -128 213 C-85.76 213 -43.52 213 0 213 C0 142.71 0 72.42 0 0 Z " fill="#000000" transform="translate(2799,2346)"/>
<path d="M0 0 C72.27 0 144.54 0 219 0 C219 328.02 219 656.04 219 994 C146.73 994 74.46 994 0 994 C0 665.98 0 337.96 0 0 Z " fill="#000000" transform="translate(4774,2367)"/>
<path d="M0 0 C0 67.65 0 135.3 0 205 C-10.07307692 206.11923077 -10.07307692 206.11923077 -13.9609375 206.2109375 C-68.21063103 207.83581241 -127.38402018 218.81379959 -170 255 C-171.09608795 255.90136549 -172.19246939 256.80237415 -173.2890625 257.703125 C-216.64571738 293.68292286 -242.89272155 349.03051184 -250.75 404.125 C-250.92354004 405.31984009 -250.92354004 405.31984009 -251.10058594 406.53881836 C-253.75639378 426.94777332 -253.16830176 447.72568161 -253.20060861 468.26404667 C-253.20871208 472.74091068 -253.22237455 477.21775844 -253.23532104 481.6946106 C-253.25694473 489.42850477 -253.27513977 497.16240069 -253.29092598 504.8963089 C-253.31375455 516.07788704 -253.34187842 527.25944708 -253.37124526 538.44100973 C-253.41876325 556.58761824 -253.46206958 574.7342342 -253.50268555 592.88085938 C-253.54212128 610.49609964 -253.58357735 628.11133329 -253.62768555 645.7265625 C-253.63043505 646.82560866 -253.63318456 647.92465482 -253.63601738 649.05700541 C-253.65753979 657.65379674 -253.67917841 666.25058778 -253.70085371 674.84737873 C-253.80684788 716.89823905 -253.90271749 758.94911688 -254 801 C-321.98 801 -389.96 801 -460 801 C-460 542.28 -460 283.56 -460 17 C-392.02 17 -324.04 17 -254 17 C-253.67 53.3 -253.34 89.6 -253 127 C-249.04 121.72 -245.08 116.44 -241 111 C-238.03369915 107.60994188 -235.06407533 104.2919322 -232 101 C-230.91259634 99.73264774 -229.82914406 98.46189262 -228.75 97.1875 C-221.11211552 88.45343766 -212.81281693 80.34708505 -203.70703125 73.15625 C-201.90069834 71.71743937 -200.12643907 70.23742962 -198.38671875 68.71875 C-152.23848867 28.51039112 -91.07638648 7.32328724 -31 1 C-30.1028125 0.89993652 -29.205625 0.79987305 -28.28125 0.69677734 C-18.75259715 -0.24781654 -9.7340733 0 0 0 Z " fill="#000000" transform="translate(4657,2560)"/>
<path d="M0 0 C0.66 0 1.32 0 2 0 C2 335.61 2 671.22 2 1017 C-66.31 1017 -134.62 1017 -205 1017 C-205.26170016 933.42287873 -205.26170016 933.42287873 -205.33345032 907.55949402 C-205.33601566 906.63709641 -205.33858099 905.71469881 -205.34122407 904.76434976 C-205.42736764 873.706519 -205.49561912 842.64867577 -205.55046082 811.59077454 C-205.55225556 810.57697685 -205.5540503 809.56317917 -205.55589943 808.51866034 C-205.5948096 786.4847195 -205.63082162 764.45077481 -205.66384928 742.41682438 C-205.68006429 731.61097126 -205.69691954 720.80511918 -205.71411133 709.99926758 C-205.7158112 708.92397042 -205.71751106 707.84867326 -205.71926244 706.74079134 C-205.7746342 671.9036456 -205.8722617 637.06677446 -205.99186387 602.22979499 C-206.11457392 566.42243375 -206.19453069 530.61522439 -206.22089487 494.80765643 C-206.22464074 489.74706875 -206.22887401 484.68648158 -206.23340416 479.62589455 C-206.23428066 478.62992409 -206.23515716 477.63395363 -206.23606022 476.60780225 C-206.25140704 460.59216876 -206.31165913 444.57700569 -206.38881644 428.56156384 C-206.46547293 412.45031505 -206.49455352 396.33953137 -206.47551791 380.2281067 C-206.46564957 370.66220242 -206.49181057 361.09800392 -206.57036806 351.53240853 C-206.61932803 345.13189823 -206.62048378 338.73249726 -206.58381358 332.33190861 C-206.56429105 328.69082115 -206.56455656 325.0529442 -206.62348137 321.41220924 C-206.89000102 303.94156847 -205.24372903 292.24576813 -193.54784998 278.81467149 C-191.34754334 276.23507154 -189.50151789 273.49285301 -187.6171875 270.67578125 C-186.37045804 268.88755606 -185.1230754 267.09978606 -183.875 265.3125 C-179.39719976 258.88820128 -174.92761067 252.4590035 -170.5 246 C-162.6944063 234.61764344 -154.78580427 223.30651231 -146.89746094 211.98144531 C-139.98041954 202.04969711 -133.06506152 192.11753006 -126.22143555 182.13500977 C-121.48194959 175.22945468 -116.68920444 168.36103654 -111.90234375 161.48828125 C-108.08428476 156.0038967 -104.27847717 150.51172358 -100.5 145 C-95.33801536 137.4701325 -90.12004103 129.97961198 -84.90234375 122.48828125 C-81.08428415 117.00389583 -77.27857621 111.51165624 -73.5 106 C-65.69434835 94.6176825 -57.78580474 83.30651299 -49.89746094 71.98144531 C-42.98192694 62.0518615 -36.06841853 52.12163284 -29.22583008 42.14160156 C-24.44795147 35.18064237 -19.62371104 28.2518895 -14.79248047 21.32788086 C-11.85366451 17.11435083 -8.9197043 12.89950377 -6.046875 8.640625 C-5.62809082 8.02276123 -5.20930664 7.40489746 -4.77783203 6.76831055 C-3.71391637 5.19406685 -2.65739694 3.61483134 -1.6015625 2.03515625 C-1.07304687 1.36355469 -0.54453125 0.69195313 0 0 Z " fill="#000000" transform="translate(2555,2344)"/>
<path d="M0 0 C68.31 0 136.62 0 207 0 C207 258.72 207 517.44 207 784 C138.69 784 70.38 784 0 784 C0 525.28 0 266.56 0 0 Z " fill="#000000" transform="translate(2026,2577)"/>
<path d="M0 0 C68.31 0 136.62 0 207 0 C205.35212024 4.11969941 203.51098347 7.73072419 201.24609375 11.50390625 C200.68733803 12.44407089 200.68733803 12.44407089 200.11729431 13.40322876 C198.89431479 15.45850001 197.66601689 17.51053466 196.4375 19.5625 C195.57678872 21.00614887 194.71627708 22.44991678 193.85595703 23.89379883 C188.06722626 33.59723554 182.21166312 43.25911456 176.32736206 52.90481567 C170.95527096 61.71479532 165.69758316 70.58607041 160.5 79.5 C154.62631193 89.57345919 148.65168846 99.57750173 142.57629395 109.5305481 C137.14051957 118.43756622 131.785032 127.38902361 126.4730835 136.37042236 C120.52708713 146.41947964 114.57610265 156.46643736 108.5 166.4375 C107.97825195 167.30753662 107.45650391 168.17757324 106.91894531 169.07397461 C106.44038086 169.85264893 105.96181641 170.63132324 105.46875 171.43359375 C105.06076172 172.10447021 104.65277344 172.77534668 104.23242188 173.46655273 C103 175 103 175 100 176 C99.64921387 175.36835938 99.29842773 174.73671875 98.93701172 174.0859375 C92.39814433 162.32571989 85.81384249 150.6034648 79 139 C73.62798054 129.85089669 68.40923438 120.62596802 63.25 111.35546875 C59.25035548 104.18646305 55.15651956 97.07907237 51 90 C45.62803207 80.85086711 40.40923475 71.62596869 35.25 62.35546875 C31.25035374 55.18645994 27.15640982 48.07913958 23 41 C17.99140457 32.46694251 13.08221586 23.88395919 8.25 15.25 C7.65316406 14.18394531 7.05632812 13.11789063 6.44140625 12.01953125 C4.2215747 8.04039265 2.03817921 4.07635842 0 0 Z " fill="#000000" transform="translate(2026,2344)"/>
</svg>
